Coordinates
version=1
nRows=30
nColumns=38
inDegrees=no

Units are S.I. units (second, meters, Newtons, ...)
If the header above contains a line with 'inDegrees', this indicates whether rotational values are in degrees (yes) or radians (no).

endheader
time	pelvis_tilt	pelvis_list	pelvis_rotation	pelvis_tx	pelvis_ty	pelvis_tz	hip_flexion_r	hip_adduction_r	hip_rotation_r	knee_angle_r	ankle_angle_r	subtalar_angle_r	mtp_angle_r	hip_flexion_l	hip_adduction_l	hip_rotation_l	knee_angle_l	ankle_angle_l	subtalar_angle_l	mtp_angle_l	lumbar_extension	lumbar_bending	lumbar_rotation	arm_flex_r	arm_add_r	arm_rot_r	elbow_flex_r	pro_sup_r	wrist_flex_r	wrist_dev_r	arm_flex_l	arm_add_l	arm_rot_l	elbow_flex_l	pro_sup_l	wrist_flex_l	wrist_dev_l
0.86	1.35459	1.47792	-2.94661	0.731071	0.755232	1.01585	0.0906696	-0.0692136	0.0786027	1.24778	-0.345702	0	0	0.265772	0.085531	-0.315657	0.614243	-0.197962	0	0	-0.330944	-0.0830599	0.0403004	0.0172393	-0.291303	0.929396	0.303252	0.876048	0	0	-0.0475272	-0.313515	0.594764	0.447036	1.10915	0	0
0.87	1.29772	1.478	-2.88281	0.732267	0.744112	1.01751	0.111613	-0.0635221	0.0813504	1.27957	-0.31728	0	0	0.246625	0.0866329	-0.312137	0.612289	-0.193417	0	0	-0.336768	-0.0796423	0.0315568	0.0186431	-0.291677	0.927204	0.307357	0.877172	0	0	-0.0477501	-0.315979	0.595069	0.449954	1.10536	0	0
0.88	1.2327	1.4784	-2.81097	0.733326	0.733136	1.01937	0.131997	-0.0566219	0.0850803	1.30641	-0.295918	0	0	0.22565	0.086648	-0.307248	0.606616	-0.190179	0	0	-0.343203	-0.0751779	0.0238699	0.0203948	-0.291313	0.925256	0.309606	0.877656	0	0	-0.0453954	-0.316187	0.596131	0.447995	1.10312	0	0
0.89	1.15561	1.47895	-2.72758	0.734359	0.722289	1.02137	0.151152	-0.048524	0.08976	1.32786	-0.279561	0	0	0.203389	0.0853435	-0.302159	0.599646	-0.18758	0	0	-0.35036	-0.0696176	0.0175648	0.0225608	-0.290804	0.923733	0.310593	0.878275	0	0	-0.041075	-0.314601	0.597979	0.442682	1.10178	0	0
0.9	1.07725	1.47961	-2.64377	0.735304	0.711452	1.02339	0.170167	-0.0394625	0.0954021	1.34412	-0.269813	0	0	0.181158	0.0827537	-0.298625	0.592073	-0.186112	0	0	-0.356933	-0.0638312	0.0129522	0.0248983	-0.289772	0.923386	0.309757	0.879043	0	0	-0.0361501	-0.312398	0.59948	0.435958	1.10079	0	0
0.91	1.00056	1.47998	-2.56277	0.736197	0.700705	1.02546	0.189406	-0.0302362	0.101292	1.35543	-0.260978	0	0	0.158308	0.0798694	-0.297119	0.581359	-0.185368	0	0	-0.363071	-0.0582152	0.00965051	0.027701	-0.288559	0.923512	0.307829	0.879654	0	0	-0.0302109	-0.309156	0.601061	0.427151	1.09973	0	0
0.92	0.92017	1.48039	-2.47879	0.737118	0.690102	1.02756	0.208209	-0.020636	0.106116	1.36105	-0.252267	0	0	0.135277	0.0764011	-0.29657	0.569572	-0.184735	0	0	-0.368928	-0.0521687	0.00781952	0.0304927	-0.287661	0.923662	0.305738	0.879912	0	0	-0.0240864	-0.305744	0.602555	0.418489	1.09826	0	0
0.93	0.836618	1.48106	-2.39205	0.738022	0.679609	1.0296	0.226554	-0.0105082	0.109374	1.36083	-0.244266	0	0	0.112674	0.0722085	-0.296343	0.558143	-0.183817	0	0	-0.374311	-0.0453747	0.00677801	0.0332955	-0.287217	0.924228	0.303957	0.880186	0	0	-0.0179299	-0.302183	0.604396	0.410297	1.0967	0	0
0.94	0.76182	1.4823	-2.31443	0.738873	0.669172	1.03138	0.245591	-0.000375046	0.111794	1.35562	-0.237276	0	0	0.0919319	0.0676618	-0.297259	0.547155	-0.18265	0	0	-0.37811	-0.0384857	0.00605038	0.0359707	-0.287182	0.924995	0.302779	0.880266	0	0	-0.0119571	-0.298394	0.606628	0.402028	1.09521	0	0
0.95	0.711597	1.48426	-2.26151	0.739673	0.658738	1.03265	0.266824	0.008175	0.113397	1.34747	-0.232439	0	0	0.0745366	0.0637948	-0.299147	0.537811	-0.181456	0	0	-0.378954	-0.0329353	0.00514938	0.0379324	-0.287077	0.925287	0.302026	0.879815	0	0	-0.00769634	-0.296024	0.608487	0.396399	1.0939	0	0
0.96	0.667962	1.48698	-2.21569	0.740438	0.648358	1.03366	0.288377	0.0163156	0.114595	1.33521	-0.225692	0	0	0.0583913	0.0601351	-0.299765	0.527025	-0.179749	0	0	-0.378237	-0.0274128	0.00500239	0.0396566	-0.287151	0.926033	0.300869	0.879317	0	0	-0.00317407	-0.293181	0.61118	0.389535	1.09196	0	0
0.97	0.618744	1.48965	-2.1622	0.741309	0.638234	1.03455	0.30841	0.0236626	0.113258	1.3183	-0.218046	0	0	0.0434911	0.0563583	-0.295848	0.517794	-0.178327	0	0	-0.378036	-0.0210455	0.00339188	0.0415214	-0.287683	0.927736	0.300186	0.879394	0	0	0.00141407	-0.291533	0.614568	0.38503	1.08963	0	0
0.98	0.557239	1.49157	-2.09212	0.742438	0.628492	1.03543	0.325822	0.0292827	0.106885	1.29631	-0.208684	0	0	0.029035	0.0527342	-0.284357	0.509237	-0.176618	0	0	-0.379405	-0.0127157	-0.00219526	0.0442273	-0.288662	0.930499	0.300383	0.879711	0	0	0.00643904	-0.291221	0.619789	0.382875	1.08562	0	0
0.99	0.508853	1.49513	-2.03654	0.743372	0.618532	1.03596	0.344402	0.0343834	0.101416	1.2706	-0.200012	0	0	0.0171139	0.0486587	-0.276539	0.50114	-0.174757	0	0	-0.377824	-0.00506013	-0.00788323	0.0466464	-0.289635	0.932096	0.301121	0.879148	0	0	0.00962541	-0.291271	0.624455	0.381617	1.0806	0	0
1	0.455706	1.49918	-1.97788	0.744078	0.608376	1.03631	0.361997	0.0397549	0.0976174	1.24066	-0.190359	0	0	0.00517464	0.0444179	-0.268963	0.492521	-0.171936	0	0	-0.375085	0.00229079	-0.0121042	0.0485393	-0.290546	0.933004	0.301806	0.877631	0	0	0.0121635	-0.291154	0.629905	0.38008	1.0734	0	0
1.01	0.385494	1.50253	-1.90238	0.744698	0.598277	1.03663	0.377194	0.0452754	0.0943542	1.20654	-0.18307	0	0	-0.00729298	0.039185	-0.262244	0.484787	-0.169052	0	0	-0.373379	0.010007	-0.0152675	0.0502054	-0.291718	0.933861	0.302774	0.876199	0	0	0.0145991	-0.291507	0.63568	0.38019	1.06653	0	0
1.02	0.313158	1.50658	-1.8257	0.745193	0.58811	1.03672	0.392018	0.050548	0.092653	1.16931	-0.177194	0	0	-0.0188623	0.0334635	-0.258776	0.476399	-0.166123	0	0	-0.370615	0.0173856	-0.0173088	0.0516465	-0.29258	0.934593	0.303065	0.875	0	0	0.0168547	-0.291735	0.641576	0.380141	1.06059	0	0
1.03	0.239879	1.51147	-1.74775	0.745718	0.578044	1.03656	0.406844	0.0543908	0.0906363	1.12965	-0.172483	0	0	-0.0288202	0.0276982	-0.256485	0.46813	-0.162978	0	0	-0.366768	0.0246227	-0.0196526	0.0530401	-0.293621	0.935289	0.3034	0.874521	0	0	0.019628	-0.29112	0.64631	0.379236	1.05698	0	0
1.04	0.164368	1.51699	-1.66754	0.74629	0.56809	1.03616	0.421522	0.0566174	0.0878171	1.0876	-0.166896	0	0	-0.0375783	0.0224146	-0.25414	0.459794	-0.158647	0	0	-0.361893	0.0314411	-0.0218781	0.0543373	-0.294896	0.935855	0.303825	0.874306	0	0	0.0224687	-0.290343	0.650357	0.378465	1.05411	0	0
1.05	0.0892967	1.52284	-1.58821	0.746858	0.5582	1.03549	0.435767	0.0569838	0.0842513	1.04285	-0.160404	0	0	-0.0454956	0.0179566	-0.252149	0.451735	-0.153127	0	0	-0.356251	0.0371882	-0.023507	0.055306	-0.296296	0.936086	0.304414	0.873693	0	0	0.0253649	-0.289913	0.655436	0.377911	1.05045	0	0
1.06	0.0240077	1.5289	-1.5191	0.747376	0.548315	1.0346	0.449653	0.0551586	0.0794654	0.996278	-0.155537	0	0	-0.0526802	0.0146811	-0.250824	0.444385	-0.150646	0	0	-0.350385	0.0412937	-0.0246805	0.0559625	-0.297419	0.935716	0.30496	0.872637	0	0	0.0278504	-0.290217	0.660238	0.378652	1.04774	0	0
1.07	-0.0296586	1.53525	-1.46223	0.747781	0.538337	1.03353	0.463064	0.0516501	0.0729368	0.947941	-0.152679	0	0	-0.0594781	0.0124532	-0.250106	0.437359	-0.148292	0	0	-0.344305	0.0439884	-0.0254568	0.0563856	-0.297896	0.934861	0.304736	0.871169	0	0	0.0302431	-0.290081	0.664332	0.378894	1.04585	0	0
1.08	-0.0787381	1.54109	-1.41079	0.7481	0.528297	1.03233	0.475162	0.0472936	0.0645259	0.897942	-0.151914	0	0	-0.0667467	0.0107724	-0.250459	0.431141	-0.144997	0	0	-0.338936	0.045472	-0.0253134	0.0566844	-0.297828	0.933848	0.303831	0.869538	0	0	0.0325984	-0.28953	0.667748	0.378725	1.04384	0	0
1.09	-0.124305	1.54666	-1.36335	0.748382	0.518155	1.03102	0.485981	0.0420254	0.0539154	0.846387	-0.153081	0	0	-0.0742829	0.00962888	-0.25133	0.425865	-0.14146	0	0	-0.333859	0.0462911	-0.0247155	0.056687	-0.297639	0.933183	0.302445	0.868321	0	0	0.0353508	-0.288164	0.671292	0.377261	1.04249	0	0
1.1	-0.15938	1.5518	-1.32683	0.748627	0.507928	1.02961	0.495544	0.0359399	0.0411107	0.794472	-0.155705	0	0	-0.0822462	0.00903579	-0.252403	0.421489	-0.138106	0	0	-0.329313	0.0464119	-0.0236085	0.0564539	-0.29725	0.932195	0.300607	0.866886	0	0	0.0384368	-0.286628	0.675181	0.375089	1.0422	0	0
1.11	-0.182228	1.55668	-1.30298	0.748822	0.497604	1.0281	0.504067	0.0296219	0.0264876	0.743725	-0.158513	0	0	-0.0905024	0.00886563	-0.253421	0.417836	-0.13514	0	0	-0.325123	0.0459825	-0.0220858	0.0560915	-0.296777	0.930908	0.298514	0.865393	0	0	0.0417687	-0.285071	0.679438	0.37231	1.04299	0	0
1.12	-0.215178	1.56127	-1.26908	0.749014	0.487154	1.02657	0.511	0.0238799	0.00974596	0.694131	-0.159747	0	0	-0.0989367	0.00859511	-0.254478	0.414819	-0.132149	0	0	-0.321136	0.045738	-0.0205436	0.055555	-0.296505	0.929307	0.296543	0.864002	0	0	0.0448131	-0.283571	0.683847	0.369715	1.04404	0	0
1.13	-0.29644	1.56504	-1.1862	0.749261	0.476595	1.02506	0.515582	0.018794	-0.00936986	0.645911	-0.159001	0	0	-0.107836	0.00796872	-0.254803	0.412635	-0.12897	0	0	-0.317815	0.0459897	-0.0193549	0.0546686	-0.296625	0.927215	0.295244	0.862596	0	0	0.0476173	-0.282082	0.6871	0.368077	1.04393	0	0
1.14	-0.50718	1.56822	-0.973681	0.749472	0.465882	1.02352	0.51825	0.0134525	-0.0279976	0.599203	-0.158167	0	0	-0.117226	0.00717459	-0.255251	0.41111	-0.125832	0	0	-0.31501	0.0462788	-0.0182245	0.0533596	-0.297011	0.924898	0.29449	0.861336	0	0	0.0499822	-0.280591	0.688818	0.366985	1.04198	0	0
1.15	0	1.5708	-1.47874	0.749629	0.455039	1.02201	0.518229	0.00815901	-0.0454892	0.553842	-0.157685	0	0	-0.127585	0.00599327	-0.255862	0.410374	-0.122799	0	0	-0.313292	0.0465845	-0.0170567	0.0517092	-0.297442	0.922601	0.293927	0.860388	0	0	0.0517935	-0.279874	0.691401	0.3667	1.04123	0	0
